HIERARCHY
ROOT Hips
{
	OFFSET 0.00000 0.00000 0.00000
	CHANNELS 6 Xposition Yposition Zposition Zrotation Yrotation Xrotation 
	JOINT LHipJoint
	{
		OFFSET 0 0 0
		CHANNELS 3 Zrotation Yrotation Xrotation
		JOINT LeftUpLeg
		{
			OFFSET 1.84395 -1.68683 0.74144
			CHANNELS 3 Zrotation Yrotation Xrotation
			JOINT LeftLeg
			{
				OFFSET 2.27037 -6.23779 0.00000
				CHANNELS 3 Zrotation Yrotation Xrotation
				JOINT LeftFoot
				{
					OFFSET 2.56918 -7.05877 0.00000
					CHANNELS 3 Zrotation Yrotation Xrotation
					JOINT LeftToeBase
					{
						OFFSET 0.22276 -0.61202 1.71784
						CHANNELS 3 Zrotation Yrotation Xrotation
						End Site
						{
							OFFSET 0.00000 -0.00000 0.91613
						}
					}
				}
			}
		}
	}
	JOINT RHipJoint
	{
		OFFSET 0 0 0
		CHANNELS 3 Zrotation Yrotation Xrotation
		JOINT RightUpLeg
		{
			OFFSET -1.76833 -1.68684 0.74144
			CHANNELS 3 Zrotation Yrotation Xrotation
			JOINT RightLeg
			{
				OFFSET -2.49360 -6.85110 0.00000
				CHANNELS 3 Zrotation Yrotation Xrotation
				JOINT RightFoot
				{
					OFFSET -2.55538 -7.02085 0.00000
					CHANNELS 3 Zrotation Yrotation Xrotation
					JOINT RightToeBase
					{
						OFFSET -0.21516 -0.59115 1.68050
						CHANNELS 3 Zrotation Yrotation Xrotation
						End Site
						{
							OFFSET -0.00000 -0.00000 0.89604
						}
					}
				}
			}
		}
	}
	JOINT LowerBack
	{
		OFFSET 0 0 0
		CHANNELS 3 Zrotation Yrotation Xrotation
		JOINT Spine
		{
			OFFSET 0.06382 1.72312 -0.19613
			CHANNELS 3 Zrotation Yrotation Xrotation
			JOINT Spine1
			{
				OFFSET -0.00055 1.73507 0.23859
				CHANNELS 3 Zrotation Yrotation Xrotation
				JOINT Neck
				{
					OFFSET 0 0 0
					CHANNELS 3 Zrotation Yrotation Xrotation
					JOINT Neck1
					{
						OFFSET 0.03638 1.65562 0.09633
						CHANNELS 3 Zrotation Yrotation Xrotation
						JOINT Head
						{
							OFFSET 0.06388 1.62807 -0.32386
							CHANNELS 3 Zrotation Yrotation Xrotation
							End Site
							{
								OFFSET 0.00995 1.67644 -0.12021
							}
						}
					}
				}
				JOINT LeftShoulder
				{
					OFFSET 0 0 0
					CHANNELS 3 Zrotation Yrotation Xrotation
					JOINT LeftArm
					{
						OFFSET 3.09648 1.42991 0.28122
						CHANNELS 3 Zrotation Yrotation Xrotation
						JOINT LeftForeArm
						{
							OFFSET 5.11878 -0.00000 -0.00000
							CHANNELS 3 Zrotation Yrotation Xrotation
							JOINT LeftHand
							{
								OFFSET 3.59971 -0.00000 0.00000
								CHANNELS 3 Zrotation Yrotation Xrotation
								JOINT LeftFingerBase
								{
									OFFSET 0 0 0
									CHANNELS 3 Zrotation Yrotation Xrotation
									JOINT LeftHandIndex1
									{
										OFFSET 0.62877 -0.00000 0.00000
										CHANNELS 3 Zrotation Yrotation Xrotation
										End Site
										{
											OFFSET 0.50693 -0.00000 0.00000
										}
									}
								}
								JOINT LThumb
								{
									OFFSET 0 0 0
									CHANNELS 3 Zrotation Yrotation Xrotation
									End Site
									{
										OFFSET 0.51467 -0.00000 0.51467
									}
								}
							}
						}
					}
				}
				JOINT RightShoulder
				{
					OFFSET 0 0 0
					CHANNELS 3 Zrotation Yrotation Xrotation
					JOINT RightArm
					{
						OFFSET -3.33565 1.14597 0.05047
						CHANNELS 3 Zrotation Yrotation Xrotation
						JOINT RightForeArm
						{
							OFFSET -5.49020 -0.00000 0.00000
							CHANNELS 3 Zrotation Yrotation Xrotation
							JOINT RightHand
							{
								OFFSET -3.20659 -0.00000 -0.00000
								CHANNELS 3 Zrotation Yrotation Xrotation
								JOINT RightFingerBase
								{
									OFFSET 0 0 0
									CHANNELS 3 Zrotation Yrotation Xrotation
									JOINT RightHandIndex1
									{
										OFFSET -0.69188 -0.00000 0.00000
										CHANNELS 3 Zrotation Yrotation Xrotation
										End Site
										{
											OFFSET -0.55781 -0.00000 0.00000
										}
									}
								}
								JOINT RThumb
								{
									OFFSET 0 0 0
									CHANNELS 3 Zrotation Yrotation Xrotation
									End Site
									{
										OFFSET -0.56633 -0.00000 0.56633
									}
								}
							}
						}
					}
				}
			}
		}
	}
}
MOTION
Frames: 15
Frame Time: .0083333
-0.5239 17.5031 7.6814 0 0 0 0 0 0 -21 0 0 0 0 0 0 0 0 0 0 0 0 0 0 21 0 0 0 0 0 0 0 0 0 0 0 0 0 0 0 0 0 0 0 0 0 0 -16 0 0 21 0 0 11 0 0 0 -8 0 0 0 0 0 0 0 0 0 0 0 0 0 0 0 0 0 0 0 0 8 0 0 0 0 0 0 0 0 0 0 0 0 0 0 0 0 0
-0.5239 17.5031 7.6814 -8.5438 1.4269 6.7161 0.0000 0.0000 0.0000 -19.0953 -35.4160 22.5887 0.0591 -1.5689 -4.3155 -5.5509 40.1271 -33.4288 0.1298 2.3220 6.3964 0.0000 0.0000 0.0000 29.5447 22.5189 7.7995 -0.0242 -1.0042 2.7605 0.7106 -18.8593 -19.6139 -0.0268 -1.0561 2.9031 4.8656 -0.6242 2.4996 2.0346 -0.2818 -8.4197 -0.5101 -0.4338 -10.3921 -13.0228 -13.1825 -2.2706 12.4660 -19.5336 17.4689 4.2943 -9.4150 8.3053 -0.0000 0.0000 0.0000 -93.3056 7.8450 -20.8814 12.2480 -20.1755 -2.1871 -0.0000 -0.0000 25.6368 16.0791 -8.9033 -2.5543 -7.1250 0.0000 -0.0000 -7.7825 20.7579 4.5606 -0.0000 0.0000 0.0000 89.3263 -10.6999 25.1599 -20.5559 31.3063 -5.8175 0.0000 0.0000 5.5952 0.4054 -38.5658 -0.2527 7.1250 -0.0000 -0.0000 43.3020 -63.2406 -21.1350
-0.5191 17.5023 7.6819 -8.4994 1.3637 6.7602 0.0000 0.0000 0.0000 -19.1687 -35.4277 22.5743 0.0593 -1.5711 -4.3217 -5.5685 40.1758 -33.4741 0.1357 2.3739 6.5403 0.0000 0.0000 0.0000 29.4545 22.5591 7.7837 -0.0236 -0.9908 2.7235 0.7062 -18.8193 -19.5876 -0.0274 -1.0684 2.9371 4.8558 -0.6154 2.3917 2.0401 -0.2788 -8.4008 -0.5010 -0.4297 -10.3052 -13.1354 -13.1250 -2.2073 12.6358 -19.4793 17.4194 4.3783 -9.3884 8.2998 0.0000 -0.0000 0.0000 -93.2366 9.1171 -15.6312 13.3850 -21.8487 -2.5948 -0.0000 -0.0000 20.2298 16.3464 -7.1764 -2.0984 -7.1250 0.0000 -0.0000 -7.6334 22.5243 4.1630 0.0000 -0.0000 0.0000 89.2737 -10.5746 25.2078 -20.5175 31.2608 -5.7975 0.0000 0.0000 5.7157 0.4085 -38.6002 -0.2549 7.1250 -0.0000 -0.0000 43.3515 -63.2648 -21.1882
-0.5142 17.5019 7.6817 -8.4464 1.3236 6.7887 0.0000 0.0000 0.0000 -19.2337 -35.4057 22.5277 0.0589 -1.5664 -4.3087 -5.5834 40.1922 -33.4240 0.1376 2.3912 6.5881 0.0000 0.0000 0.0000 29.3480 22.5501 7.7547 -0.0231 -0.9803 2.6947 0.6994 -18.7704 -19.5749 -0.0289 -1.0967 3.0150 4.8461 -0.6092 2.3241 2.0295 -0.2763 -8.4116 -0.5078 -0.4280 -10.2763 -13.1807 -13.0730 -2.0650 12.7108 -19.4262 17.3686 4.4280 -9.3690 8.2626 -0.0000 0.0000 0.0000 -93.2472 9.1109 -15.4006 13.4746 -21.9787 -2.6283 -0.0000 -0.0000 19.9289 16.4608 -7.2743 -2.1426 -7.1250 0.0000 -0.0000 -7.5471 22.4186 4.1335 -0.0000 0.0000 0.0000 89.2711 -10.5250 25.1612 -20.4517 31.1827 -5.7634 0.0000 0.0000 5.8484 0.4168 -38.5861 -0.2600 7.1250 -0.0000 -0.0000 43.3405 -63.2523 -21.1692
-0.5110 17.5021 7.6807 -8.4762 1.2942 6.7992 0.0000 0.0000 0.0000 -19.1369 -35.3214 22.4301 0.0591 -1.5681 -4.3134 -5.5796 40.1497 -33.2995 0.1303 2.3271 6.4107 0.0000 0.0000 0.0000 29.3741 22.5987 7.7617 -0.0230 -0.9781 2.6885 0.7026 -18.7885 -19.5718 -0.0310 -1.1361 3.1234 4.9006 -0.6036 2.2823 2.0386 -0.2662 -8.4209 -0.5298 -0.4270 -10.2623 -13.1615 -13.0221 -1.8862 12.7527 -19.3708 17.2769 4.4612 -9.3496 8.1946 -0.0000 0.0000 0.0000 -93.2267 9.1010 -15.2099 13.5348 -22.0657 -2.6508 -0.0000 -0.0000 19.7383 16.4927 -7.2402 -2.1370 -7.1250 0.0000 -0.0000 -7.5248 22.4524 4.1152 -0.0000 0.0000 0.0000 89.2771 -10.4715 25.1214 -20.3609 31.0747 -5.7165 0.0000 0.0000 5.9713 0.3129 -38.5841 -0.1951 7.1250 -0.0000 -0.0000 43.2387 -63.2787 -21.1361
-0.5085 17.5024 7.6799 -8.4865 1.2610 6.8236 0.0000 0.0000 0.0000 -19.0839 -35.2815 22.3683 0.0595 -1.5739 -4.3295 -5.5643 40.1211 -33.3093 0.1279 2.3050 6.3495 0.0000 0.0000 0.0000 29.3803 22.6646 7.7721 -0.0225 -0.9693 2.6642 0.7092 -18.8230 -19.5567 -0.0310 -1.1373 3.1266 4.9246 -0.5981 2.2230 2.0438 -0.2606 -8.4250 -0.5390 -0.4256 -10.2313 -13.0438 -12.9814 -1.8210 12.6905 -19.3182 17.2992 4.4372 -9.3249 8.1640 -0.0000 0.0000 0.0000 -93.2042 9.0488 -15.0669 13.5660 -22.1109 -2.6626 -0.0000 -0.0000 19.5891 16.5057 -7.3185 -2.1617 -7.1250 0.0000 -0.0000 -7.5131 22.3710 4.1227 -0.0000 0.0000 0.0000 89.2916 -10.4358 25.0918 -20.2957 30.9970 -5.6829 0.0000 0.0000 6.1040 0.1589 -38.5805 -0.0991 7.1250 -0.0000 -0.0000 43.0868 -63.3174 -21.0859
-0.5059 17.5020 7.6809 -8.4662 1.2279 6.8343 0.0000 0.0000 0.0000 -19.0923 -35.2223 22.3260 0.0593 -1.5715 -4.3229 -5.5349 40.0684 -33.3366 0.1351 2.3689 6.5264 0.0000 0.0000 0.0000 29.3539 22.6990 7.8079 -0.0219 -0.9547 2.6241 0.7102 -18.8280 -19.5543 -0.0293 -1.1043 3.0358 4.9248 -0.5971 2.1650 2.0389 -0.2636 -8.4290 -0.5447 -0.4269 -10.2011 -13.2847 -12.9182 -1.8310 12.7847 -19.2686 17.5761 4.5058 -9.3039 8.2862 0.0000 -0.0000 0.0000 -93.2028 9.0348 -14.8817 13.6286 -22.2013 -2.6862 -0.0000 -0.0000 19.3780 16.5201 -7.3429 -2.1709 -7.1250 0.0000 -0.0000 -7.5019 22.3452 4.1209 0.0000 -0.0000 0.0000 89.3443 -10.4916 24.9858 -20.2780 30.9759 -5.6738 0.0000 0.0000 6.3603 0.0980 -38.4691 -0.0610 7.1250 -0.0000 -0.0000 42.8780 -63.2522 -20.8994
-0.5030 17.5009 7.6827 -8.4817 1.2079 6.8103 0.0000 0.0000 0.0000 -19.0872 -35.1565 22.3294 0.0591 -1.5691 -4.3162 -5.5233 40.0295 -33.2829 0.1422 2.4303 6.6963 0.0000 0.0000 0.0000 29.3769 22.6831 7.8576 -0.0216 -0.9481 2.6061 0.7079 -18.8074 -19.5417 -0.0253 -1.0276 2.8247 4.9743 -0.5913 2.1563 2.0428 -0.2515 -8.4475 -0.5690 -0.4253 -10.2171 -12.9204 -12.9502 -1.8121 12.4143 -19.2716 17.6341 4.3350 -9.3086 8.2257 -0.0000 0.0000 0.0000 -93.3159 7.6916 -19.3640 12.6323 -20.7461 -2.3214 -0.0000 -0.0000 23.8821 16.6523 -8.5817 -2.5556 -7.1250 0.0000 -0.0000 -7.3769 21.0597 4.2682 -0.0000 0.0000 0.0000 89.4079 -10.6216 24.8102 -20.2595 30.9537 -5.6642 0.0000 0.0000 6.7457 0.0797 -38.4167 -0.0495 7.1250 -0.0000 -0.0000 42.7900 -63.2187 -20.8150
-0.5010 17.5003 7.6830 -8.5058 1.1949 6.8003 0.0000 0.0000 0.0000 -19.0343 -35.0856 22.3077 0.0601 -1.5813 -4.3499 -5.5250 40.0039 -33.1780 0.1418 2.4266 6.6861 0.0000 0.0000 0.0000 29.4101 22.6908 7.8833 -0.0216 -0.9483 2.6066 0.7099 -18.8175 -19.5367 -0.0242 -1.0042 2.7604 5.0167 -0.5719 2.1249 2.0517 -0.2228 -8.4612 -0.5863 -0.4144 -10.2132 -12.9218 -12.9344 -1.7425 12.3876 -19.2686 17.7636 4.3310 -9.3100 8.2535 -0.0000 0.0000 0.0000 -93.3109 7.6492 -19.3444 12.6299 -20.7426 -2.3206 -0.0000 -0.0000 23.8928 16.5361 -8.6510 -2.5570 -7.1250 0.0000 -0.0000 -7.4592 20.9941 4.3278 -0.0000 0.0000 0.0000 89.4641 -10.7502 24.6424 -20.2232 30.9103 -5.6456 0.0000 0.0000 7.1501 -0.1925 -38.3376 0.1194 7.1250 -0.0000 -0.0000 42.4231 -63.2333 -20.6169
-0.5000 17.5004 7.6831 -8.4812 1.1891 6.8115 0.0000 0.0000 0.0000 -19.0187 -35.0291 22.2426 0.0602 -1.5828 -4.3541 -5.5187 39.9710 -33.1066 0.1337 2.3564 6.4916 0.0000 0.0000 0.0000 29.3989 22.7666 7.9226 -0.0214 -0.9437 2.5939 0.7183 -18.8900 -19.5783 -0.0293 -1.1058 3.0399 4.9749 -0.5507 2.0275 2.0574 -0.2045 -8.4445 -0.5606 -0.4003 -10.1338 -12.9593 -12.9162 -1.6994 12.4031 -19.2619 17.8686 4.3446 -9.3080 8.2857 0.0000 -0.0000 0.0000 -93.2100 8.8669 -14.8204 13.6378 -22.2146 -2.6897 -0.0000 -0.0000 19.4149 16.3255 -7.3706 -2.1519 -7.1250 0.0000 -0.0000 -7.6429 22.3250 4.2033 0.0000 -0.0000 0.0000 89.4782 -10.8713 24.6396 -20.2155 30.9011 -5.6416 0.0000 0.0000 7.5356 -0.5680 -38.2947 0.3520 7.1250 -0.0000 -0.0000 42.0051 -63.3020 -20.4427
-0.4990 17.5006 7.6845 -8.4773 1.2076 6.8057 0.0000 0.0000 0.0000 -19.0340 -35.0258 22.2468 0.0599 -1.5790 -4.3436 -5.5252 39.9806 -33.0924 0.1265 2.2931 6.3163 0.0000 0.0000 0.0000 29.4099 22.7903 7.9660 -0.0212 -0.9394 2.5820 0.7218 -18.9280 -19.6120 -0.0322 -1.1592 3.1869 4.9452 -0.5428 1.9245 2.0757 -0.2031 -8.4095 -0.5268 -0.3942 -10.0316 -13.0070 -12.8967 -1.6899 12.4298 -19.2539 17.9921 4.3609 -9.3034 8.3321 -0.0000 0.0000 0.0000 -93.3157 7.8521 -17.7564 12.9244 -21.1763 -2.4259 -0.0000 -0.0000 22.3818 16.5305 -8.2105 -2.4270 -7.1250 0.0000 -0.0000 -7.4724 21.4491 4.2581 -0.0000 0.0000 0.0000 89.4387 -10.9938 24.7870 -20.2132 30.8984 -5.6404 0.0000 0.0000 7.8656 -0.6723 -38.4617 0.4182 7.1250 -0.0000 -0.0000 42.1293 -63.4536 -20.6620
-0.4979 17.5003 7.6864 -8.5291 1.2552 6.7636 0.0000 0.0000 0.0000 -18.9219 -34.9015 22.2067 0.0609 -1.5921 -4.3795 -5.5189 39.9100 -32.8844 0.1190 2.2239 6.1248 0.0000 0.0000 0.0000 29.4932 22.7651 8.0419 -0.0207 -0.9298 2.5556 0.7199 -18.9353 -19.6513 -0.0329 -1.1707 3.2187 4.9750 -0.5607 1.8681 2.1115 -0.2279 -8.3692 -0.5041 -0.4051 -9.9540 -12.9841 -12.8887 -1.6548 12.3974 -19.2549 18.0955 4.3488 -9.3043 8.3549 -0.0000 0.0000 0.0000 -93.2850 8.6814 -14.7210 13.6485 -22.2300 -2.6937 -0.0000 -0.0000 19.2824 16.3808 -7.3756 -2.1611 -7.1250 0.0000 -0.0000 -7.6024 22.3174 4.1820 -0.0000 0.0000 0.0000 89.3788 -11.1513 24.9671 -20.2225 30.9095 -5.6452 0.0000 0.0000 8.0382 -0.4489 -38.5453 0.2797 7.1250 -0.0000 -0.0000 42.4573 -63.4552 -20.8544
-0.4966 17.4996 7.6873 -8.5268 1.3111 6.7190 0.0000 0.0000 0.0000 -18.8644 -34.7716 22.1377 0.0611 -1.5947 -4.3868 -5.4976 39.8041 -32.6601 0.1112 2.1503 5.9211 0.0000 0.0000 0.0000 29.5133 22.7517 8.1269 -0.0200 -0.9127 2.5087 0.7190 -18.9667 -19.7276 -0.0372 -1.2444 3.4214 4.9468 -0.5872 1.8590 2.1332 -0.2658 -8.3430 -0.4621 -0.4194 -9.9204 -12.9232 -12.8918 -1.5775 12.3287 -19.2658 18.1605 4.3215 -9.3129 8.3509 -0.0000 0.0000 0.0000 -93.3465 8.5755 -14.9517 13.6639 -22.2522 -2.6995 -0.0000 -0.0000 19.4407 16.2711 -7.3244 -2.1310 -7.1250 0.0000 -0.0000 -7.6839 22.3749 4.2174 -0.0000 0.0000 0.0000 89.3304 -11.3495 25.0918 -20.2288 30.9170 -5.6484 0.0000 0.0000 8.0715 -0.1434 -38.4734 0.0892 7.1250 -0.0000 -0.0000 42.6529 -63.3200 -20.8355
-0.4947 17.4987 7.6882 -8.4833 1.3551 6.6986 0.0000 0.0000 0.0000 -19.0048 -34.8683 22.2338 0.0603 -1.5846 -4.3590 -5.5107 39.8544 -32.7434 0.1108 2.1466 5.9109 0.0000 0.0000 0.0000 29.4671 22.7425 8.1540 -0.0199 -0.9118 2.5061 0.7220 -19.0096 -19.7778 -0.0375 -1.2503 3.4378 4.8797 -0.5998 1.8466 2.1457 -0.2880 -8.3270 -0.4097 -0.4237 -9.8944 -12.9347 -12.8781 -1.4626 12.3644 -19.2601 18.1259 4.3444 -9.3146 8.3230 -0.0000 0.0000 0.0000 -93.4854 7.2428 -19.2849 12.6524 -20.7758 -2.3285 -0.0000 -0.0000 23.7344 16.5136 -8.5506 -2.5240 -7.1250 0.0000 -0.0000 -7.4773 21.0990 4.3206 -0.0000 0.0000 0.0000 89.2921 -11.5445 25.1445 -20.1698 30.8463 -5.6181 0.0000 0.0000 7.8992 -0.2495 -38.2799 0.1545 7.1250 -0.0000 -0.0000 42.2914 -63.2059 -20.5141
-0.4927 17.4991 7.6897 -8.4631 1.4011 6.6423 0.0000 0.0000 0.0000 -19.2146 -35.0458 22.4537 0.0589 -1.5656 -4.3067 -5.5269 39.9523 -32.9782 0.1159 2.1944 6.0433 0.0000 0.0000 0.0000 29.4746 22.7345 8.2316 -0.0202 -0.9172 2.5209 0.7294 -19.0779 -19.8244 -0.0324 -1.1613 3.1927 4.8445 -0.6183 1.8579 2.1616 -0.3147 -8.2935 -0.3709 -0.4323 -9.8640 -12.9761 -12.8617 -1.3951 12.4540 -19.2533 18.0761 4.3858 -9.3119 8.3070 0.0000 0.0000 0.0000 -93.5677 6.8210 -20.7927 12.3629 -20.3466 -2.2269 -0.0000 -0.0000 25.2098 16.6609 -9.0881 -2.7064 -7.1250 0.0000 -0.0000 -7.3618 20.5363 4.3470 0.0000 0.0000 0.0000 89.2618 -11.7239 25.1774 -20.0604 30.7150 -5.5622 0.0000 0.0000 7.6392 -0.4936 -37.9874 0.3038 7.1250 -0.0000 -0.0000 41.6691 -63.0538 -20.0096
